# xmcd
#
# Track frame offsets:
#	172
#	10267
#	23810
#	31755
#	44650
#	55762
#	66520
#	75837
#	88310
#	98147
#	108052
#	119110
#	129927
#	141232
#
# Disc length: 2029 seconds
#
# Revision: 2
# Processed by: cddbd v1.4PL0 Copyright (c) Steve Scherf et al.
# Submitted via: Gronk 1.4
#
DISCID=b607eb0e
DTITLE=Buck Owens - Roll Out The Red Carpet for Buck Owens and his Buckaroos
DYEAR=1900
DGENRE=country
TTITLE0=Gonna Roll Out The Red Carpet
TTITLE1=He Don't Deserve You Anymore
TTITLE2=Cajun Fiddle
TTITLE3=That's What I'm Like Without You
TTITLE4=I'm Layin' It On The Line
TTITLE5=Hangin' On To What I Got
TTITLE6=We Split The Blanket
TTITLE7=Cinderella
TTITLE8=Tom Cattin'
TTITLE9=There Never Was A Fool
TTITLE10=After You Leave Me
TTITLE11=(I'll Love You) Forever And Ever
TTITLE12=Only You (Can Break My Heart) (Instrumental Version)
TTITLE13=My Heart Skips A Beat (Instrumental Version)
EXTD=
EXTT0=
EXTT1=
EXTT2=
EXTT3=
EXTT4=
EXTT5=
EXTT6=
EXTT7=
EXTT8=
EXTT9=
EXTT10=
EXTT11=
EXTT12=
EXTT13=
PLAYORDER=
